<svg aria-hidden="true" style="position:absolute;width:0;height:0;overflow:hidden" xmlns="http://www.w3.org/2000/svg"><defs><symbol id="telegram" viewBox="0 0 64 64"><path fill="#fff" style="fill:var(--color1, #fff)" d="M64 0 0 36l20.453 7.575L52 14 28.005 46.372l.019.007-.024-.007V64l11.47-13.382L54 56 64 0z"/></symbol><symbol id="icon-email" viewBox="0 0 64 64"><path d="M53.333 10.667H10.666c-2.933 0-5.307 2.4-5.307 5.333l-.027 32c0 2.933 2.4 5.333 5.333 5.333h42.667c2.933 0 5.333-2.4 5.333-5.333V16c0-2.933-2.4-5.333-5.333-5.333zM52.267 22 33.414 33.787a2.699 2.699 0 0 1-2.827 0L11.734 22a2.282 2.282 0 0 1-1.067-1.92c0-1.787 1.947-2.853 3.467-1.92l17.867 11.173L49.868 18.16c1.52-.933 3.467.133 3.467 1.92 0 .773-.4 1.493-1.067 1.92z"/></symbol></defs></svg>