<svg aria-hidden="true" style="position:absolute;width:0;height:0;overflow:hidden" xmlns="http://www.w3.org/2000/svg"><defs><symbol id="check" viewBox="0 0 68 64"><path fill="#2196f3" style="fill:var(--color1, #2196f3)" d="M8.533 0h51.2a8.533 8.533 0 0 1 8.533 8.533v46.933a8.533 8.533 0 0 1-8.533 8.533h-51.2A8.533 8.533 0 0 1 0 55.466V8.533A8.533 8.533 0 0 1 8.533 0z"/><path fill="#fff" style="fill:var(--color2, #fff);stroke:var(--color2, #fff)" stroke="#fff" stroke-width=".853" d="m16.883 33.074-.293-.28-4.409 4.177L27.715 51.79l32.636-31.134-4.38-4.178-28.256 26.93-10.832-10.333z"/></symbol><symbol id="check-vector" viewBox="0 0 68 64"><path d="M60.681 7.111v49.778H7.585V7.111h53.096zm0-7.111H7.585C3.413 0 0 3.2 0 7.111v49.778C0 60.8 3.413 64 7.585 64h53.096c4.172 0 7.585-3.2 7.585-7.111V7.111C68.266 3.2 64.853 0 60.681 0z"/></symbol></defs></svg>