<svg aria-hidden="true" style="position:absolute;width:0;height:0;overflow:hidden" xmlns="http://www.w3.org/2000/svg"><defs><symbol id="person" viewBox="0 0 64 64"><path d="M32 32c5.893 0 10.667-4.773 10.667-10.667S37.894 10.666 32 10.666c-5.893 0-10.667 4.773-10.667 10.667S26.106 32 32 32zm0 5.333c-7.12 0-21.333 3.573-21.333 10.667v2.667c0 1.467 1.2 2.667 2.667 2.667h37.333c1.467 0 2.667-1.2 2.667-2.667V48c0-7.093-14.213-10.667-21.333-10.667z"/></symbol><symbol id="phone" viewBox="0 0 64 64"><path d="m49.764 39.547-6.535-.746a5.12 5.12 0 0 0-4.22 1.467l-4.734 4.735a38.714 38.714 0 0 1-16.957-16.957l4.76-4.76a5.123 5.123 0 0 0 1.467-4.22l-.746-6.484a5.15 5.15 0 0 0-5.12-4.554h-4.451c-2.908 0-5.326 2.419-5.146 5.326C9.446 35.328 27.02 52.877 48.968 54.24c2.907.18 5.326-2.239 5.326-5.146v-4.451c.026-2.599-1.93-4.786-4.529-5.095z"/></symbol><symbol id="email" viewBox="0 0 64 64"><path d="M53.333 10.667H10.666c-2.933 0-5.307 2.4-5.307 5.333l-.027 32c0 2.933 2.4 5.333 5.333 5.333h42.667c2.933 0 5.333-2.4 5.333-5.333V16c0-2.933-2.4-5.333-5.333-5.333zM52.267 22 33.414 33.787a2.699 2.699 0 0 1-2.827 0L11.734 22a2.282 2.282 0 0 1-1.067-1.92c0-1.787 1.947-2.853 3.467-1.92l17.867 11.173L49.868 18.16c1.52-.933 3.467.133 3.467 1.92 0 .773-.4 1.493-1.067 1.92z"/></symbol></defs></svg>